<mxfile host="app.diagrams.net" modified="2023-11-23T15:46:26.443Z" agent="Mozilla/5.0 (Windows NT 10.0; Win64; x64) AppleWebKit/537.36 (KHTML, like Gecko) Chrome/116.0.0.0 Safari/537.36 OPR/102.0.0.0" etag="Nz3D4P1U9nfFD_6fQGNH" version="22.1.3" type="github">
  <diagram name="PÃ¡gina-1" id="XOLRJrRksC3ue8zFNfLt">
    <mxGraphModel dx="1205" dy="454" grid="1" gridSize="10" guides="1" tooltips="1" connect="1" arrows="1" fold="1" page="1" pageScale="1" pageWidth="1169" pageHeight="827" math="0" shadow="0">
      <root>
        <mxCell id="0" />
        <mxCell id="1" parent="0" />
        <mxCell id="EWZKFUjDIKVQ4XLmrkwc-15" value="" style="endArrow=none;html=1;rounded=0;exitX=0;exitY=0.5;exitDx=0;exitDy=0;entryX=1;entryY=0.5;entryDx=0;entryDy=0;" parent="1" source="81bF-uPPxsggyHCmnINe-65" edge="1">
          <mxGeometry width="50" height="50" relative="1" as="geometry">
            <mxPoint x="440" y="30" as="sourcePoint" />
            <mxPoint x="370" y="30" as="targetPoint" />
          </mxGeometry>
        </mxCell>
        <mxCell id="EWZKFUjDIKVQ4XLmrkwc-16" value="" style="endArrow=none;html=1;rounded=0;entryX=1;entryY=0.25;entryDx=0;entryDy=0;" parent="1" edge="1">
          <mxGeometry width="50" height="50" relative="1" as="geometry">
            <mxPoint x="400" y="30" as="sourcePoint" />
            <mxPoint x="370" y="20" as="targetPoint" />
          </mxGeometry>
        </mxCell>
        <mxCell id="EWZKFUjDIKVQ4XLmrkwc-17" value="" style="endArrow=none;html=1;rounded=0;entryX=1;entryY=0.75;entryDx=0;entryDy=0;" parent="1" edge="1">
          <mxGeometry width="50" height="50" relative="1" as="geometry">
            <mxPoint x="400" y="30" as="sourcePoint" />
            <mxPoint x="370" y="40" as="targetPoint" />
          </mxGeometry>
        </mxCell>
        <mxCell id="EWZKFUjDIKVQ4XLmrkwc-40" value="User" style="swimlane;whiteSpace=wrap;html=1;" parent="1" vertex="1">
          <mxGeometry x="960" y="480" width="120" height="320" as="geometry">
            <mxRectangle x="690" y="220" width="80" height="30" as="alternateBounds" />
          </mxGeometry>
        </mxCell>
        <mxCell id="EWZKFUjDIKVQ4XLmrkwc-37" value="Nome" style="text;strokeColor=none;fillColor=none;align=left;verticalAlign=middle;spacingLeft=4;spacingRight=4;overflow=hidden;points=[[0,0.5],[1,0.5]];portConstraint=eastwest;rotatable=0;whiteSpace=wrap;html=1;" parent="EWZKFUjDIKVQ4XLmrkwc-40" vertex="1">
          <mxGeometry y="45" width="140" height="30" as="geometry" />
        </mxCell>
        <mxCell id="EWZKFUjDIKVQ4XLmrkwc-38" value="Email" style="text;strokeColor=none;fillColor=none;align=left;verticalAlign=middle;spacingLeft=4;spacingRight=4;overflow=hidden;points=[[0,0.5],[1,0.5]];portConstraint=eastwest;rotatable=0;whiteSpace=wrap;html=1;" parent="EWZKFUjDIKVQ4XLmrkwc-40" vertex="1">
          <mxGeometry y="85" width="140" height="30" as="geometry" />
        </mxCell>
        <mxCell id="EWZKFUjDIKVQ4XLmrkwc-39" value="Palavra-Passe" style="text;strokeColor=none;fillColor=none;align=left;verticalAlign=middle;spacingLeft=4;spacingRight=4;overflow=hidden;points=[[0,0.5],[1,0.5]];portConstraint=eastwest;rotatable=0;whiteSpace=wrap;html=1;" parent="EWZKFUjDIKVQ4XLmrkwc-40" vertex="1">
          <mxGeometry y="125" width="140" height="30" as="geometry" />
        </mxCell>
        <mxCell id="EWZKFUjDIKVQ4XLmrkwc-46" value="ID" style="text;html=1;align=center;verticalAlign=middle;resizable=0;points=[];autosize=1;strokeColor=none;fillColor=none;" parent="EWZKFUjDIKVQ4XLmrkwc-40" vertex="1">
          <mxGeometry y="170" width="40" height="30" as="geometry" />
        </mxCell>
        <mxCell id="81bF-uPPxsggyHCmnINe-36" value="Turma" style="text;html=1;align=center;verticalAlign=middle;resizable=0;points=[];autosize=1;strokeColor=none;fillColor=none;" parent="EWZKFUjDIKVQ4XLmrkwc-40" vertex="1">
          <mxGeometry y="210" width="60" height="30" as="geometry" />
        </mxCell>
        <mxCell id="81bF-uPPxsggyHCmnINe-39" value="Semestre" style="text;html=1;align=center;verticalAlign=middle;resizable=0;points=[];autosize=1;strokeColor=none;fillColor=none;" parent="EWZKFUjDIKVQ4XLmrkwc-40" vertex="1">
          <mxGeometry y="250" width="70" height="30" as="geometry" />
        </mxCell>
        <mxCell id="81bF-uPPxsggyHCmnINe-106" value="ID_Curso" style="text;html=1;align=center;verticalAlign=middle;resizable=0;points=[];autosize=1;strokeColor=none;fillColor=none;" parent="EWZKFUjDIKVQ4XLmrkwc-40" vertex="1">
          <mxGeometry y="290" width="70" height="30" as="geometry" />
        </mxCell>
        <mxCell id="EWZKFUjDIKVQ4XLmrkwc-49" value="Evento" style="swimlane;whiteSpace=wrap;html=1;" parent="1" vertex="1">
          <mxGeometry x="1120" y="40" width="120" height="200" as="geometry">
            <mxRectangle x="170" y="220" width="150" height="70" as="alternateBounds" />
          </mxGeometry>
        </mxCell>
        <mxCell id="EWZKFUjDIKVQ4XLmrkwc-50" value="Nome" style="text;html=1;align=center;verticalAlign=middle;resizable=0;points=[];autosize=1;strokeColor=none;fillColor=none;" parent="EWZKFUjDIKVQ4XLmrkwc-49" vertex="1">
          <mxGeometry x="-5" y="40" width="60" height="30" as="geometry" />
        </mxCell>
        <mxCell id="EWZKFUjDIKVQ4XLmrkwc-51" value="ID" style="text;html=1;align=center;verticalAlign=middle;resizable=0;points=[];autosize=1;strokeColor=none;fillColor=none;" parent="EWZKFUjDIKVQ4XLmrkwc-49" vertex="1">
          <mxGeometry y="80" width="40" height="30" as="geometry" />
        </mxCell>
        <mxCell id="EWZKFUjDIKVQ4XLmrkwc-52" value="Inicio" style="text;html=1;align=center;verticalAlign=middle;resizable=0;points=[];autosize=1;strokeColor=none;fillColor=none;" parent="EWZKFUjDIKVQ4XLmrkwc-49" vertex="1">
          <mxGeometry y="120" width="50" height="30" as="geometry" />
        </mxCell>
        <mxCell id="EWZKFUjDIKVQ4XLmrkwc-53" value="Fim" style="text;html=1;align=center;verticalAlign=middle;resizable=0;points=[];autosize=1;strokeColor=none;fillColor=none;" parent="EWZKFUjDIKVQ4XLmrkwc-49" vertex="1">
          <mxGeometry y="158" width="40" height="30" as="geometry" />
        </mxCell>
        <mxCell id="EWZKFUjDIKVQ4XLmrkwc-57" value="Teste" style="swimlane;whiteSpace=wrap;html=1;" parent="1" vertex="1">
          <mxGeometry x="1280" y="280" width="130" height="260" as="geometry">
            <mxRectangle x="100" y="310" width="80" height="30" as="alternateBounds" />
          </mxGeometry>
        </mxCell>
        <mxCell id="EWZKFUjDIKVQ4XLmrkwc-59" value="Nome" style="text;html=1;align=center;verticalAlign=middle;resizable=0;points=[];autosize=1;strokeColor=none;fillColor=none;" parent="EWZKFUjDIKVQ4XLmrkwc-57" vertex="1">
          <mxGeometry x="10" y="38" width="60" height="30" as="geometry" />
        </mxCell>
        <mxCell id="EWZKFUjDIKVQ4XLmrkwc-62" value="Inicio" style="text;html=1;align=center;verticalAlign=middle;resizable=0;points=[];autosize=1;strokeColor=none;fillColor=none;" parent="EWZKFUjDIKVQ4XLmrkwc-57" vertex="1">
          <mxGeometry x="15" y="78" width="50" height="30" as="geometry" />
        </mxCell>
        <mxCell id="EWZKFUjDIKVQ4XLmrkwc-63" value="Fim" style="text;html=1;align=center;verticalAlign=middle;resizable=0;points=[];autosize=1;strokeColor=none;fillColor=none;" parent="EWZKFUjDIKVQ4XLmrkwc-57" vertex="1">
          <mxGeometry x="15" y="120" width="40" height="30" as="geometry" />
        </mxCell>
        <mxCell id="EWZKFUjDIKVQ4XLmrkwc-68" value="ID" style="text;html=1;align=center;verticalAlign=middle;resizable=0;points=[];autosize=1;strokeColor=none;fillColor=none;" parent="EWZKFUjDIKVQ4XLmrkwc-57" vertex="1">
          <mxGeometry x="10" y="160" width="40" height="30" as="geometry" />
        </mxCell>
        <mxCell id="81bF-uPPxsggyHCmnINe-60" value="ID_UC" style="text;html=1;align=center;verticalAlign=middle;resizable=0;points=[];autosize=1;strokeColor=none;fillColor=none;" parent="EWZKFUjDIKVQ4XLmrkwc-57" vertex="1">
          <mxGeometry x="10" y="200" width="60" height="30" as="geometry" />
        </mxCell>
        <mxCell id="Pgj-9I-fhwqGwPlFETf9-9" value="Nota" style="text;html=1;align=center;verticalAlign=middle;resizable=0;points=[];autosize=1;strokeColor=none;fillColor=none;" vertex="1" parent="EWZKFUjDIKVQ4XLmrkwc-57">
          <mxGeometry x="10" y="230" width="50" height="30" as="geometry" />
        </mxCell>
        <mxCell id="81bF-uPPxsggyHCmnINe-10" value="" style="endArrow=none;html=1;rounded=0;exitX=0;exitY=0.5;exitDx=0;exitDy=0;entryX=1;entryY=0.5;entryDx=0;entryDy=0;" parent="1" target="81bF-uPPxsggyHCmnINe-68" edge="1">
          <mxGeometry width="50" height="50" relative="1" as="geometry">
            <mxPoint x="310" y="30" as="sourcePoint" />
            <mxPoint x="210" y="30" as="targetPoint" />
          </mxGeometry>
        </mxCell>
        <mxCell id="81bF-uPPxsggyHCmnINe-11" value="" style="endArrow=none;html=1;rounded=0;exitX=0;exitY=0.25;exitDx=0;exitDy=0;" parent="1" edge="1">
          <mxGeometry width="50" height="50" relative="1" as="geometry">
            <mxPoint x="310" y="20" as="sourcePoint" />
            <mxPoint x="270" y="30" as="targetPoint" />
          </mxGeometry>
        </mxCell>
        <mxCell id="81bF-uPPxsggyHCmnINe-12" value="" style="endArrow=none;html=1;rounded=0;exitX=0;exitY=0.75;exitDx=0;exitDy=0;" parent="1" edge="1">
          <mxGeometry width="50" height="50" relative="1" as="geometry">
            <mxPoint x="310" y="40" as="sourcePoint" />
            <mxPoint x="270" y="30" as="targetPoint" />
          </mxGeometry>
        </mxCell>
        <mxCell id="81bF-uPPxsggyHCmnINe-14" value="" style="endArrow=none;html=1;rounded=0;exitX=0.5;exitY=0;exitDx=0;exitDy=0;entryX=0.5;entryY=1;entryDx=0;entryDy=0;" parent="1" source="81bF-uPPxsggyHCmnINe-69" target="81bF-uPPxsggyHCmnINe-67" edge="1">
          <mxGeometry width="50" height="50" relative="1" as="geometry">
            <mxPoint x="339.5" y="240" as="sourcePoint" />
            <mxPoint x="340" y="170" as="targetPoint" />
            <Array as="points" />
          </mxGeometry>
        </mxCell>
        <mxCell id="81bF-uPPxsggyHCmnINe-25" value="" style="endArrow=none;html=1;rounded=0;entryX=0.75;entryY=1;entryDx=0;entryDy=0;" parent="1" target="81bF-uPPxsggyHCmnINe-67" edge="1">
          <mxGeometry width="50" height="50" relative="1" as="geometry">
            <mxPoint x="340" y="200" as="sourcePoint" />
            <mxPoint x="360" y="170" as="targetPoint" />
            <Array as="points" />
          </mxGeometry>
        </mxCell>
        <mxCell id="81bF-uPPxsggyHCmnINe-26" value="" style="endArrow=none;html=1;rounded=0;entryX=0.25;entryY=1;entryDx=0;entryDy=0;" parent="1" target="81bF-uPPxsggyHCmnINe-67" edge="1">
          <mxGeometry width="50" height="50" relative="1" as="geometry">
            <mxPoint x="340" y="200" as="sourcePoint" />
            <mxPoint x="320" y="170" as="targetPoint" />
            <Array as="points" />
          </mxGeometry>
        </mxCell>
        <mxCell id="81bF-uPPxsggyHCmnINe-27" value="" style="endArrow=none;html=1;rounded=0;exitX=0.5;exitY=0;exitDx=0;exitDy=0;entryX=0.5;entryY=1;entryDx=0;entryDy=0;" parent="1" edge="1">
          <mxGeometry width="50" height="50" relative="1" as="geometry">
            <mxPoint x="340" y="120" as="sourcePoint" />
            <mxPoint x="340" y="47.5" as="targetPoint" />
          </mxGeometry>
        </mxCell>
        <mxCell id="81bF-uPPxsggyHCmnINe-28" value="" style="endArrow=none;html=1;rounded=0;exitX=0.25;exitY=0;exitDx=0;exitDy=0;" parent="1" edge="1">
          <mxGeometry width="50" height="50" relative="1" as="geometry">
            <mxPoint x="320" y="120" as="sourcePoint" />
            <mxPoint x="340" y="90" as="targetPoint" />
            <Array as="points" />
          </mxGeometry>
        </mxCell>
        <mxCell id="81bF-uPPxsggyHCmnINe-29" value="" style="endArrow=none;html=1;rounded=0;entryX=0.75;entryY=0;entryDx=0;entryDy=0;" parent="1" edge="1">
          <mxGeometry width="50" height="50" relative="1" as="geometry">
            <mxPoint x="340" y="90" as="sourcePoint" />
            <mxPoint x="360" y="120" as="targetPoint" />
            <Array as="points" />
          </mxGeometry>
        </mxCell>
        <mxCell id="81bF-uPPxsggyHCmnINe-31" value="UCCU" style="swimlane;whiteSpace=wrap;html=1;" parent="1" vertex="1">
          <mxGeometry x="1120" y="440" width="120" height="180" as="geometry">
            <mxRectangle x="690" y="310" width="80" height="30" as="alternateBounds" />
          </mxGeometry>
        </mxCell>
        <mxCell id="81bF-uPPxsggyHCmnINe-33" value="ID_User" style="text;html=1;align=center;verticalAlign=middle;resizable=0;points=[];autosize=1;strokeColor=none;fillColor=none;" parent="81bF-uPPxsggyHCmnINe-31" vertex="1">
          <mxGeometry y="90" width="70" height="30" as="geometry" />
        </mxCell>
        <mxCell id="81bF-uPPxsggyHCmnINe-34" value="ID" style="text;html=1;align=center;verticalAlign=middle;resizable=0;points=[];autosize=1;strokeColor=none;fillColor=none;" parent="81bF-uPPxsggyHCmnINe-31" vertex="1">
          <mxGeometry y="50" width="40" height="30" as="geometry" />
        </mxCell>
        <mxCell id="81bF-uPPxsggyHCmnINe-105" value="ID_UCC" style="text;html=1;align=center;verticalAlign=middle;resizable=0;points=[];autosize=1;strokeColor=none;fillColor=none;" parent="81bF-uPPxsggyHCmnINe-31" vertex="1">
          <mxGeometry y="130" width="70" height="30" as="geometry" />
        </mxCell>
        <mxCell id="81bF-uPPxsggyHCmnINe-35" value="Curso" style="swimlane;whiteSpace=wrap;html=1;" parent="1" vertex="1">
          <mxGeometry x="1120" y="280" width="120" height="120" as="geometry">
            <mxRectangle x="1160" y="210" width="80" height="30" as="alternateBounds" />
          </mxGeometry>
        </mxCell>
        <mxCell id="81bF-uPPxsggyHCmnINe-37" value="ID" style="text;html=1;align=center;verticalAlign=middle;resizable=0;points=[];autosize=1;strokeColor=none;fillColor=none;" parent="81bF-uPPxsggyHCmnINe-35" vertex="1">
          <mxGeometry x="15" y="70" width="40" height="30" as="geometry" />
        </mxCell>
        <mxCell id="81bF-uPPxsggyHCmnINe-38" value="Nome" style="text;html=1;align=center;verticalAlign=middle;resizable=0;points=[];autosize=1;strokeColor=none;fillColor=none;" parent="81bF-uPPxsggyHCmnINe-35" vertex="1">
          <mxGeometry x="5" y="30" width="60" height="30" as="geometry" />
        </mxCell>
        <mxCell id="81bF-uPPxsggyHCmnINe-40" value="Tarefa" style="swimlane;whiteSpace=wrap;html=1;" parent="1" vertex="1">
          <mxGeometry x="800" y="500" width="120" height="320" as="geometry">
            <mxRectangle x="1310" y="20" width="80" height="30" as="alternateBounds" />
          </mxGeometry>
        </mxCell>
        <mxCell id="81bF-uPPxsggyHCmnINe-41" value="Nome" style="text;html=1;align=center;verticalAlign=middle;resizable=0;points=[];autosize=1;strokeColor=none;fillColor=none;" parent="81bF-uPPxsggyHCmnINe-40" vertex="1">
          <mxGeometry x="-5" y="40" width="60" height="30" as="geometry" />
        </mxCell>
        <mxCell id="81bF-uPPxsggyHCmnINe-42" value="Data_Inicio" style="text;html=1;align=center;verticalAlign=middle;resizable=0;points=[];autosize=1;strokeColor=none;fillColor=none;" parent="81bF-uPPxsggyHCmnINe-40" vertex="1">
          <mxGeometry y="80" width="80" height="30" as="geometry" />
        </mxCell>
        <mxCell id="81bF-uPPxsggyHCmnINe-43" value="Data_Fim" style="text;html=1;align=center;verticalAlign=middle;resizable=0;points=[];autosize=1;strokeColor=none;fillColor=none;" parent="81bF-uPPxsggyHCmnINe-40" vertex="1">
          <mxGeometry y="120" width="80" height="30" as="geometry" />
        </mxCell>
        <mxCell id="81bF-uPPxsggyHCmnINe-44" value="ID" style="text;html=1;align=center;verticalAlign=middle;resizable=0;points=[];autosize=1;strokeColor=none;fillColor=none;" parent="81bF-uPPxsggyHCmnINe-40" vertex="1">
          <mxGeometry x="5" y="160" width="40" height="30" as="geometry" />
        </mxCell>
        <mxCell id="81bF-uPPxsggyHCmnINe-64" value="ID_UC" style="text;html=1;align=center;verticalAlign=middle;resizable=0;points=[];autosize=1;strokeColor=none;fillColor=none;" parent="81bF-uPPxsggyHCmnINe-40" vertex="1">
          <mxGeometry x="5" y="190" width="60" height="30" as="geometry" />
        </mxCell>
        <mxCell id="81bF-uPPxsggyHCmnINe-109" value="ID_Curso" style="text;html=1;align=center;verticalAlign=middle;resizable=0;points=[];autosize=1;strokeColor=none;fillColor=none;" parent="81bF-uPPxsggyHCmnINe-40" vertex="1">
          <mxGeometry x="5" y="230" width="70" height="30" as="geometry" />
        </mxCell>
        <mxCell id="MIzPGE-qYp7c597YkJrl-20" value="Prioridade" style="text;html=1;align=center;verticalAlign=middle;resizable=0;points=[];autosize=1;strokeColor=none;fillColor=none;" parent="81bF-uPPxsggyHCmnINe-40" vertex="1">
          <mxGeometry x="5" y="270" width="80" height="30" as="geometry" />
        </mxCell>
        <mxCell id="Pgj-9I-fhwqGwPlFETf9-13" value="Nota" style="text;html=1;align=center;verticalAlign=middle;resizable=0;points=[];autosize=1;strokeColor=none;fillColor=none;" vertex="1" parent="81bF-uPPxsggyHCmnINe-40">
          <mxGeometry x="10" y="290" width="50" height="30" as="geometry" />
        </mxCell>
        <mxCell id="81bF-uPPxsggyHCmnINe-45" value="UC" style="swimlane;whiteSpace=wrap;html=1;" parent="1" vertex="1">
          <mxGeometry x="1270" y="560" width="120" height="200" as="geometry">
            <mxRectangle x="1580" y="40" width="80" height="30" as="alternateBounds" />
          </mxGeometry>
        </mxCell>
        <mxCell id="81bF-uPPxsggyHCmnINe-46" value="Nome" style="text;strokeColor=none;fillColor=none;align=left;verticalAlign=middle;spacingLeft=4;spacingRight=4;overflow=hidden;points=[[0,0.5],[1,0.5]];portConstraint=eastwest;rotatable=0;whiteSpace=wrap;html=1;" parent="81bF-uPPxsggyHCmnINe-45" vertex="1">
          <mxGeometry y="40" width="140" height="30" as="geometry" />
        </mxCell>
        <mxCell id="81bF-uPPxsggyHCmnINe-47" value="Sala" style="text;strokeColor=none;fillColor=none;align=left;verticalAlign=middle;spacingLeft=4;spacingRight=4;overflow=hidden;points=[[0,0.5],[1,0.5]];portConstraint=eastwest;rotatable=0;whiteSpace=wrap;html=1;" parent="81bF-uPPxsggyHCmnINe-45" vertex="1">
          <mxGeometry y="85" width="140" height="30" as="geometry" />
        </mxCell>
        <mxCell id="81bF-uPPxsggyHCmnINe-48" value="Professor" style="text;strokeColor=none;fillColor=none;align=left;verticalAlign=middle;spacingLeft=4;spacingRight=4;overflow=hidden;points=[[0,0.5],[1,0.5]];portConstraint=eastwest;rotatable=0;whiteSpace=wrap;html=1;" parent="81bF-uPPxsggyHCmnINe-45" vertex="1">
          <mxGeometry y="125" width="140" height="30" as="geometry" />
        </mxCell>
        <mxCell id="81bF-uPPxsggyHCmnINe-49" value="ID" style="text;html=1;align=center;verticalAlign=middle;resizable=0;points=[];autosize=1;strokeColor=none;fillColor=none;" parent="81bF-uPPxsggyHCmnINe-45" vertex="1">
          <mxGeometry y="170" width="40" height="30" as="geometry" />
        </mxCell>
        <mxCell id="81bF-uPPxsggyHCmnINe-50" value="UCC" style="swimlane;whiteSpace=wrap;html=1;startSize=23;" parent="1" vertex="1">
          <mxGeometry x="1280" y="40" width="120" height="170" as="geometry">
            <mxRectangle x="1810" y="45" width="60" height="35" as="alternateBounds" />
          </mxGeometry>
        </mxCell>
        <mxCell id="81bF-uPPxsggyHCmnINe-52" value="ID" style="text;html=1;align=center;verticalAlign=middle;resizable=0;points=[];autosize=1;strokeColor=none;fillColor=none;" parent="81bF-uPPxsggyHCmnINe-50" vertex="1">
          <mxGeometry y="40" width="40" height="30" as="geometry" />
        </mxCell>
        <mxCell id="81bF-uPPxsggyHCmnINe-107" value="ID_UC" style="text;html=1;align=center;verticalAlign=middle;resizable=0;points=[];autosize=1;strokeColor=none;fillColor=none;" parent="81bF-uPPxsggyHCmnINe-50" vertex="1">
          <mxGeometry y="80" width="60" height="30" as="geometry" />
        </mxCell>
        <mxCell id="81bF-uPPxsggyHCmnINe-108" value="ID_Curso" style="text;html=1;align=center;verticalAlign=middle;resizable=0;points=[];autosize=1;strokeColor=none;fillColor=none;" parent="81bF-uPPxsggyHCmnINe-50" vertex="1">
          <mxGeometry y="120" width="70" height="30" as="geometry" />
        </mxCell>
        <mxCell id="81bF-uPPxsggyHCmnINe-63" value="UCC" style="rounded=0;whiteSpace=wrap;html=1;fillColor=#C3ABD0;" parent="1" vertex="1">
          <mxGeometry x="310" y="10" width="60" height="40" as="geometry" />
        </mxCell>
        <mxCell id="81bF-uPPxsggyHCmnINe-65" value="Curso" style="rounded=0;whiteSpace=wrap;html=1;fillColor=#C3ABD0;" parent="1" vertex="1">
          <mxGeometry x="455" y="10" width="60" height="40" as="geometry" />
        </mxCell>
        <mxCell id="81bF-uPPxsggyHCmnINe-67" value="UCCU" style="rounded=0;whiteSpace=wrap;html=1;fillColor=#C3ABD0;" parent="1" vertex="1">
          <mxGeometry x="310" y="120" width="60" height="40" as="geometry" />
        </mxCell>
        <mxCell id="81bF-uPPxsggyHCmnINe-68" value="UC" style="rounded=0;whiteSpace=wrap;html=1;fillColor=#C3ABD0;" parent="1" vertex="1">
          <mxGeometry x="140" y="10" width="60" height="40" as="geometry" />
        </mxCell>
        <mxCell id="81bF-uPPxsggyHCmnINe-69" value="User" style="rounded=0;whiteSpace=wrap;html=1;fillColor=#C3ABD0;" parent="1" vertex="1">
          <mxGeometry x="310" y="250" width="60" height="40" as="geometry" />
        </mxCell>
        <mxCell id="81bF-uPPxsggyHCmnINe-71" value="Agenda" style="swimlane;whiteSpace=wrap;html=1;" parent="1" vertex="1">
          <mxGeometry x="960" y="240" width="120" height="220" as="geometry">
            <mxRectangle x="100" y="310" width="80" height="30" as="alternateBounds" />
          </mxGeometry>
        </mxCell>
        <mxCell id="81bF-uPPxsggyHCmnINe-72" value="ID" style="text;html=1;align=center;verticalAlign=middle;resizable=0;points=[];autosize=1;strokeColor=none;fillColor=none;" parent="81bF-uPPxsggyHCmnINe-71" vertex="1">
          <mxGeometry x="10" y="30" width="40" height="30" as="geometry" />
        </mxCell>
        <mxCell id="81bF-uPPxsggyHCmnINe-73" value="ID_Teste" style="text;html=1;align=center;verticalAlign=middle;resizable=0;points=[];autosize=1;strokeColor=none;fillColor=none;" parent="81bF-uPPxsggyHCmnINe-71" vertex="1">
          <mxGeometry x="10" y="70" width="70" height="30" as="geometry" />
        </mxCell>
        <mxCell id="81bF-uPPxsggyHCmnINe-74" value="ID_Evento" style="text;html=1;align=center;verticalAlign=middle;resizable=0;points=[];autosize=1;strokeColor=none;fillColor=none;" parent="81bF-uPPxsggyHCmnINe-71" vertex="1">
          <mxGeometry x="10" y="110" width="80" height="30" as="geometry" />
        </mxCell>
        <mxCell id="MIzPGE-qYp7c597YkJrl-6" value="ID_Tarefa" style="text;html=1;align=center;verticalAlign=middle;resizable=0;points=[];autosize=1;strokeColor=none;fillColor=none;" parent="81bF-uPPxsggyHCmnINe-71" vertex="1">
          <mxGeometry x="10" y="150" width="80" height="30" as="geometry" />
        </mxCell>
        <mxCell id="MIzPGE-qYp7c597YkJrl-7" value="ID_Lembrete" style="text;html=1;align=center;verticalAlign=middle;resizable=0;points=[];autosize=1;strokeColor=none;fillColor=none;" parent="81bF-uPPxsggyHCmnINe-71" vertex="1">
          <mxGeometry x="10" y="180" width="100" height="30" as="geometry" />
        </mxCell>
        <mxCell id="81bF-uPPxsggyHCmnINe-75" value="Agenda" style="rounded=0;whiteSpace=wrap;html=1;fillColor=#C3ABD0;" parent="1" vertex="1">
          <mxGeometry x="130" y="250" width="60" height="40" as="geometry" />
        </mxCell>
        <mxCell id="81bF-uPPxsggyHCmnINe-76" value="Pedido de Amizade" style="rounded=0;whiteSpace=wrap;html=1;fillColor=#C3ABD0;" parent="1" vertex="1">
          <mxGeometry x="530" y="210" width="60" height="40" as="geometry" />
        </mxCell>
        <mxCell id="81bF-uPPxsggyHCmnINe-77" value="Evento" style="rounded=0;whiteSpace=wrap;html=1;fillColor=#C3ABD0;" parent="1" vertex="1">
          <mxGeometry x="510" y="290" width="60" height="40" as="geometry" />
        </mxCell>
        <mxCell id="81bF-uPPxsggyHCmnINe-78" value="Teste" style="rounded=0;whiteSpace=wrap;html=1;fillColor=#C3ABD0;" parent="1" vertex="1">
          <mxGeometry x="130" y="160" width="60" height="40" as="geometry" />
        </mxCell>
        <mxCell id="81bF-uPPxsggyHCmnINe-79" value="Tarefa" style="rounded=0;whiteSpace=wrap;html=1;fillColor=#C3ABD0;" parent="1" vertex="1">
          <mxGeometry y="250" width="60" height="40" as="geometry" />
        </mxCell>
        <mxCell id="81bF-uPPxsggyHCmnINe-83" value="Status" style="rounded=0;whiteSpace=wrap;html=1;fillColor=#C3ABD0;" parent="1" vertex="1">
          <mxGeometry x="670" y="210" width="60" height="40" as="geometry" />
        </mxCell>
        <mxCell id="81bF-uPPxsggyHCmnINe-91" value="Lembrete" style="rounded=0;whiteSpace=wrap;html=1;fillColor=#C3ABD0;" parent="1" vertex="1">
          <mxGeometry x="130" y="340" width="60" height="40" as="geometry" />
        </mxCell>
        <mxCell id="81bF-uPPxsggyHCmnINe-97" value="Pedido de Amizade" style="swimlane;whiteSpace=wrap;html=1;startSize=23;" parent="1" vertex="1">
          <mxGeometry x="945" y="40" width="150" height="140" as="geometry">
            <mxRectangle x="100" y="310" width="80" height="30" as="alternateBounds" />
          </mxGeometry>
        </mxCell>
        <mxCell id="81bF-uPPxsggyHCmnINe-98" value="ID" style="text;html=1;align=center;verticalAlign=middle;resizable=0;points=[];autosize=1;strokeColor=none;fillColor=none;" parent="81bF-uPPxsggyHCmnINe-97" vertex="1">
          <mxGeometry x="5" y="30" width="40" height="30" as="geometry" />
        </mxCell>
        <mxCell id="81bF-uPPxsggyHCmnINe-99" value="ID_User" style="text;html=1;align=center;verticalAlign=middle;resizable=0;points=[];autosize=1;strokeColor=none;fillColor=none;" parent="81bF-uPPxsggyHCmnINe-97" vertex="1">
          <mxGeometry x="5" y="68" width="70" height="30" as="geometry" />
        </mxCell>
        <mxCell id="MIzPGE-qYp7c597YkJrl-21" value="ID_User" style="text;html=1;align=center;verticalAlign=middle;resizable=0;points=[];autosize=1;strokeColor=none;fillColor=none;" parent="81bF-uPPxsggyHCmnINe-97" vertex="1">
          <mxGeometry x="5" y="110" width="70" height="30" as="geometry" />
        </mxCell>
        <mxCell id="81bF-uPPxsggyHCmnINe-101" value="Status" style="swimlane;whiteSpace=wrap;html=1;startSize=23;" parent="1" vertex="1">
          <mxGeometry x="800" y="40" width="120" height="140" as="geometry">
            <mxRectangle x="100" y="310" width="80" height="30" as="alternateBounds" />
          </mxGeometry>
        </mxCell>
        <mxCell id="81bF-uPPxsggyHCmnINe-102" value="Data" style="text;html=1;align=center;verticalAlign=middle;resizable=0;points=[];autosize=1;strokeColor=none;fillColor=none;" parent="81bF-uPPxsggyHCmnINe-101" vertex="1">
          <mxGeometry x="15" y="30" width="50" height="30" as="geometry" />
        </mxCell>
        <mxCell id="81bF-uPPxsggyHCmnINe-103" value="ID_PA" style="text;html=1;align=center;verticalAlign=middle;resizable=0;points=[];autosize=1;strokeColor=none;fillColor=none;" parent="81bF-uPPxsggyHCmnINe-101" vertex="1">
          <mxGeometry x="10" y="68" width="60" height="30" as="geometry" />
        </mxCell>
        <mxCell id="81bF-uPPxsggyHCmnINe-104" value="ID" style="text;html=1;align=center;verticalAlign=middle;resizable=0;points=[];autosize=1;strokeColor=none;fillColor=none;" parent="81bF-uPPxsggyHCmnINe-101" vertex="1">
          <mxGeometry x="20" y="110" width="40" height="30" as="geometry" />
        </mxCell>
        <mxCell id="81bF-uPPxsggyHCmnINe-111" value="" style="endArrow=none;html=1;rounded=0;exitX=1;exitY=0.5;exitDx=0;exitDy=0;" parent="1" source="81bF-uPPxsggyHCmnINe-75" target="81bF-uPPxsggyHCmnINe-69" edge="1">
          <mxGeometry width="50" height="50" relative="1" as="geometry">
            <mxPoint x="450" y="190" as="sourcePoint" />
            <mxPoint x="500" y="140" as="targetPoint" />
          </mxGeometry>
        </mxCell>
        <mxCell id="81bF-uPPxsggyHCmnINe-112" value="" style="endArrow=none;html=1;rounded=0;exitX=0;exitY=0.5;exitDx=0;exitDy=0;entryX=1;entryY=0.5;entryDx=0;entryDy=0;" parent="1" source="81bF-uPPxsggyHCmnINe-75" target="81bF-uPPxsggyHCmnINe-79" edge="1">
          <mxGeometry width="50" height="50" relative="1" as="geometry">
            <mxPoint x="430" y="190" as="sourcePoint" />
            <mxPoint x="480" y="140" as="targetPoint" />
          </mxGeometry>
        </mxCell>
        <mxCell id="81bF-uPPxsggyHCmnINe-113" value="" style="endArrow=none;html=1;rounded=0;exitX=0.5;exitY=0;exitDx=0;exitDy=0;entryX=0.5;entryY=1;entryDx=0;entryDy=0;" parent="1" source="81bF-uPPxsggyHCmnINe-91" target="81bF-uPPxsggyHCmnINe-75" edge="1">
          <mxGeometry width="50" height="50" relative="1" as="geometry">
            <mxPoint x="430" y="190" as="sourcePoint" />
            <mxPoint x="480" y="140" as="targetPoint" />
          </mxGeometry>
        </mxCell>
        <mxCell id="81bF-uPPxsggyHCmnINe-114" value="" style="endArrow=none;html=1;rounded=0;exitX=0.5;exitY=0;exitDx=0;exitDy=0;entryX=0.5;entryY=1;entryDx=0;entryDy=0;" parent="1" source="81bF-uPPxsggyHCmnINe-75" target="81bF-uPPxsggyHCmnINe-78" edge="1">
          <mxGeometry width="50" height="50" relative="1" as="geometry">
            <mxPoint x="430" y="190" as="sourcePoint" />
            <mxPoint x="480" y="140" as="targetPoint" />
          </mxGeometry>
        </mxCell>
        <mxCell id="81bF-uPPxsggyHCmnINe-115" value="" style="endArrow=none;html=1;rounded=0;entryX=1;entryY=0.25;entryDx=0;entryDy=0;" parent="1" target="81bF-uPPxsggyHCmnINe-79" edge="1">
          <mxGeometry width="50" height="50" relative="1" as="geometry">
            <mxPoint x="80" y="270" as="sourcePoint" />
            <mxPoint x="480" y="200" as="targetPoint" />
          </mxGeometry>
        </mxCell>
        <mxCell id="81bF-uPPxsggyHCmnINe-116" value="" style="endArrow=none;html=1;rounded=0;entryX=1;entryY=0.75;entryDx=0;entryDy=0;" parent="1" target="81bF-uPPxsggyHCmnINe-79" edge="1">
          <mxGeometry width="50" height="50" relative="1" as="geometry">
            <mxPoint x="80" y="270" as="sourcePoint" />
            <mxPoint x="480" y="200" as="targetPoint" />
          </mxGeometry>
        </mxCell>
        <mxCell id="81bF-uPPxsggyHCmnINe-117" value="" style="endArrow=none;html=1;rounded=0;entryX=0.25;entryY=1;entryDx=0;entryDy=0;" parent="1" target="81bF-uPPxsggyHCmnINe-78" edge="1">
          <mxGeometry width="50" height="50" relative="1" as="geometry">
            <mxPoint x="160" y="230" as="sourcePoint" />
            <mxPoint x="480" y="200" as="targetPoint" />
          </mxGeometry>
        </mxCell>
        <mxCell id="81bF-uPPxsggyHCmnINe-118" value="" style="endArrow=none;html=1;rounded=0;entryX=0.75;entryY=1;entryDx=0;entryDy=0;" parent="1" target="81bF-uPPxsggyHCmnINe-78" edge="1">
          <mxGeometry width="50" height="50" relative="1" as="geometry">
            <mxPoint x="160" y="230" as="sourcePoint" />
            <mxPoint x="480" y="200" as="targetPoint" />
          </mxGeometry>
        </mxCell>
        <mxCell id="81bF-uPPxsggyHCmnINe-119" value="" style="endArrow=none;html=1;rounded=0;entryX=0.25;entryY=0;entryDx=0;entryDy=0;" parent="1" target="81bF-uPPxsggyHCmnINe-91" edge="1">
          <mxGeometry width="50" height="50" relative="1" as="geometry">
            <mxPoint x="160" y="310" as="sourcePoint" />
            <mxPoint x="480" y="200" as="targetPoint" />
          </mxGeometry>
        </mxCell>
        <mxCell id="81bF-uPPxsggyHCmnINe-120" value="" style="endArrow=none;html=1;rounded=0;entryX=0.75;entryY=0;entryDx=0;entryDy=0;" parent="1" target="81bF-uPPxsggyHCmnINe-91" edge="1">
          <mxGeometry width="50" height="50" relative="1" as="geometry">
            <mxPoint x="160" y="310" as="sourcePoint" />
            <mxPoint x="480" y="200" as="targetPoint" />
          </mxGeometry>
        </mxCell>
        <mxCell id="81bF-uPPxsggyHCmnINe-121" value="" style="endArrow=none;html=1;rounded=0;exitX=1;exitY=0.75;exitDx=0;exitDy=0;entryX=0;entryY=0.5;entryDx=0;entryDy=0;" parent="1" source="81bF-uPPxsggyHCmnINe-69" target="81bF-uPPxsggyHCmnINe-77" edge="1">
          <mxGeometry width="50" height="50" relative="1" as="geometry">
            <mxPoint x="450" y="250" as="sourcePoint" />
            <mxPoint x="480" y="320" as="targetPoint" />
            <Array as="points">
              <mxPoint x="470" y="280" />
              <mxPoint x="470" y="310" />
            </Array>
          </mxGeometry>
        </mxCell>
        <mxCell id="81bF-uPPxsggyHCmnINe-122" value="" style="endArrow=none;html=1;rounded=0;exitX=0.5;exitY=1;exitDx=0;exitDy=0;entryX=0;entryY=0.5;entryDx=0;entryDy=0;" parent="1" source="81bF-uPPxsggyHCmnINe-69" target="81bF-uPPxsggyHCmnINe-128" edge="1">
          <mxGeometry width="50" height="50" relative="1" as="geometry">
            <mxPoint x="450" y="250" as="sourcePoint" />
            <mxPoint x="400" y="360" as="targetPoint" />
            <Array as="points">
              <mxPoint x="340" y="350" />
            </Array>
          </mxGeometry>
        </mxCell>
        <mxCell id="81bF-uPPxsggyHCmnINe-123" value="" style="endArrow=none;html=1;rounded=0;exitX=1;exitY=0.5;exitDx=0;exitDy=0;entryX=0;entryY=0.5;entryDx=0;entryDy=0;" parent="1" source="81bF-uPPxsggyHCmnINe-76" target="81bF-uPPxsggyHCmnINe-83" edge="1">
          <mxGeometry width="50" height="50" relative="1" as="geometry">
            <mxPoint x="450" y="250" as="sourcePoint" />
            <mxPoint x="500" y="200" as="targetPoint" />
          </mxGeometry>
        </mxCell>
        <mxCell id="81bF-uPPxsggyHCmnINe-124" value="" style="endArrow=none;html=1;rounded=0;entryX=1;entryY=0.25;entryDx=0;entryDy=0;" parent="1" target="81bF-uPPxsggyHCmnINe-76" edge="1">
          <mxGeometry width="50" height="50" relative="1" as="geometry">
            <mxPoint x="620" y="230" as="sourcePoint" />
            <mxPoint x="500" y="200" as="targetPoint" />
          </mxGeometry>
        </mxCell>
        <mxCell id="81bF-uPPxsggyHCmnINe-125" value="" style="endArrow=none;html=1;rounded=0;entryX=1;entryY=0.75;entryDx=0;entryDy=0;" parent="1" target="81bF-uPPxsggyHCmnINe-76" edge="1">
          <mxGeometry width="50" height="50" relative="1" as="geometry">
            <mxPoint x="620" y="230" as="sourcePoint" />
            <mxPoint x="500" y="200" as="targetPoint" />
          </mxGeometry>
        </mxCell>
        <mxCell id="81bF-uPPxsggyHCmnINe-126" value="" style="endArrow=none;html=1;rounded=0;entryX=0;entryY=0.25;entryDx=0;entryDy=0;" parent="1" target="81bF-uPPxsggyHCmnINe-77" edge="1">
          <mxGeometry width="50" height="50" relative="1" as="geometry">
            <mxPoint x="490" y="310" as="sourcePoint" />
            <mxPoint x="500" y="200" as="targetPoint" />
          </mxGeometry>
        </mxCell>
        <mxCell id="81bF-uPPxsggyHCmnINe-127" value="" style="endArrow=none;html=1;rounded=0;entryX=0;entryY=0.75;entryDx=0;entryDy=0;" parent="1" target="81bF-uPPxsggyHCmnINe-77" edge="1">
          <mxGeometry width="50" height="50" relative="1" as="geometry">
            <mxPoint x="490" y="310" as="sourcePoint" />
            <mxPoint x="500" y="200" as="targetPoint" />
          </mxGeometry>
        </mxCell>
        <mxCell id="81bF-uPPxsggyHCmnINe-128" value="UE" style="rounded=0;whiteSpace=wrap;html=1;fillColor=#C3ABD0;" parent="1" vertex="1">
          <mxGeometry x="400" y="330" width="60" height="40" as="geometry" />
        </mxCell>
        <mxCell id="81bF-uPPxsggyHCmnINe-129" value="" style="endArrow=none;html=1;rounded=0;exitX=1;exitY=0.5;exitDx=0;exitDy=0;entryX=0.5;entryY=1;entryDx=0;entryDy=0;" parent="1" source="81bF-uPPxsggyHCmnINe-128" target="81bF-uPPxsggyHCmnINe-77" edge="1">
          <mxGeometry width="50" height="50" relative="1" as="geometry">
            <mxPoint x="450" y="390" as="sourcePoint" />
            <mxPoint x="540" y="360" as="targetPoint" />
            <Array as="points">
              <mxPoint x="540" y="350" />
            </Array>
          </mxGeometry>
        </mxCell>
        <mxCell id="81bF-uPPxsggyHCmnINe-130" value="" style="endArrow=none;html=1;rounded=0;entryX=1;entryY=0.25;entryDx=0;entryDy=0;" parent="1" target="81bF-uPPxsggyHCmnINe-128" edge="1">
          <mxGeometry width="50" height="50" relative="1" as="geometry">
            <mxPoint x="480" y="350" as="sourcePoint" />
            <mxPoint x="500" y="340" as="targetPoint" />
          </mxGeometry>
        </mxCell>
        <mxCell id="81bF-uPPxsggyHCmnINe-131" value="" style="endArrow=none;html=1;rounded=0;entryX=1;entryY=0.75;entryDx=0;entryDy=0;" parent="1" target="81bF-uPPxsggyHCmnINe-128" edge="1">
          <mxGeometry width="50" height="50" relative="1" as="geometry">
            <mxPoint x="480" y="350" as="sourcePoint" />
            <mxPoint x="500" y="340" as="targetPoint" />
          </mxGeometry>
        </mxCell>
        <mxCell id="81bF-uPPxsggyHCmnINe-132" value="" style="endArrow=none;html=1;rounded=0;entryX=0;entryY=0.25;entryDx=0;entryDy=0;" parent="1" target="81bF-uPPxsggyHCmnINe-128" edge="1">
          <mxGeometry width="50" height="50" relative="1" as="geometry">
            <mxPoint x="380" y="350" as="sourcePoint" />
            <mxPoint x="500" y="340" as="targetPoint" />
          </mxGeometry>
        </mxCell>
        <mxCell id="81bF-uPPxsggyHCmnINe-133" value="" style="endArrow=none;html=1;rounded=0;entryX=0;entryY=0.75;entryDx=0;entryDy=0;" parent="1" target="81bF-uPPxsggyHCmnINe-128" edge="1">
          <mxGeometry width="50" height="50" relative="1" as="geometry">
            <mxPoint x="380" y="350" as="sourcePoint" />
            <mxPoint x="500" y="340" as="targetPoint" />
          </mxGeometry>
        </mxCell>
        <mxCell id="81bF-uPPxsggyHCmnINe-137" value="" style="endArrow=none;html=1;rounded=0;entryX=1;entryY=0.25;entryDx=0;entryDy=0;" parent="1" target="81bF-uPPxsggyHCmnINe-75" edge="1">
          <mxGeometry width="50" height="50" relative="1" as="geometry">
            <mxPoint x="220" y="270" as="sourcePoint" />
            <mxPoint x="235" y="210" as="targetPoint" />
          </mxGeometry>
        </mxCell>
        <mxCell id="81bF-uPPxsggyHCmnINe-138" value="" style="endArrow=none;html=1;rounded=0;exitX=0.75;exitY=0;exitDx=0;exitDy=0;entryX=0;entryY=0.5;entryDx=0;entryDy=0;" parent="1" source="81bF-uPPxsggyHCmnINe-69" target="81bF-uPPxsggyHCmnINe-76" edge="1">
          <mxGeometry width="50" height="50" relative="1" as="geometry">
            <mxPoint x="470" y="190" as="sourcePoint" />
            <mxPoint x="520" y="140" as="targetPoint" />
            <Array as="points">
              <mxPoint x="450" y="230" />
            </Array>
          </mxGeometry>
        </mxCell>
        <mxCell id="81bF-uPPxsggyHCmnINe-139" value="" style="endArrow=none;html=1;rounded=0;exitX=1;exitY=0.25;exitDx=0;exitDy=0;entryX=0.5;entryY=1;entryDx=0;entryDy=0;" parent="1" source="81bF-uPPxsggyHCmnINe-69" target="81bF-uPPxsggyHCmnINe-76" edge="1">
          <mxGeometry width="50" height="50" relative="1" as="geometry">
            <mxPoint x="470" y="190" as="sourcePoint" />
            <mxPoint x="560" y="260" as="targetPoint" />
            <Array as="points">
              <mxPoint x="560" y="270" />
            </Array>
          </mxGeometry>
        </mxCell>
        <mxCell id="81bF-uPPxsggyHCmnINe-141" value="" style="endArrow=none;html=1;rounded=0;entryX=0;entryY=0.25;entryDx=0;entryDy=0;" parent="1" target="81bF-uPPxsggyHCmnINe-76" edge="1">
          <mxGeometry width="50" height="50" relative="1" as="geometry">
            <mxPoint x="510" y="230" as="sourcePoint" />
            <mxPoint x="520" y="140" as="targetPoint" />
          </mxGeometry>
        </mxCell>
        <mxCell id="81bF-uPPxsggyHCmnINe-142" value="" style="endArrow=none;html=1;rounded=0;entryX=0;entryY=0.75;entryDx=0;entryDy=0;" parent="1" target="81bF-uPPxsggyHCmnINe-76" edge="1">
          <mxGeometry width="50" height="50" relative="1" as="geometry">
            <mxPoint x="510" y="230" as="sourcePoint" />
            <mxPoint x="520" y="140" as="targetPoint" />
          </mxGeometry>
        </mxCell>
        <mxCell id="81bF-uPPxsggyHCmnINe-143" value="" style="endArrow=none;html=1;rounded=0;entryX=0.25;entryY=1;entryDx=0;entryDy=0;" parent="1" target="81bF-uPPxsggyHCmnINe-76" edge="1">
          <mxGeometry width="50" height="50" relative="1" as="geometry">
            <mxPoint x="560" y="260" as="sourcePoint" />
            <mxPoint x="520" y="140" as="targetPoint" />
          </mxGeometry>
        </mxCell>
        <mxCell id="81bF-uPPxsggyHCmnINe-144" value="" style="endArrow=none;html=1;rounded=0;entryX=0.75;entryY=1;entryDx=0;entryDy=0;" parent="1" target="81bF-uPPxsggyHCmnINe-76" edge="1">
          <mxGeometry width="50" height="50" relative="1" as="geometry">
            <mxPoint x="560" y="260" as="sourcePoint" />
            <mxPoint x="520" y="140" as="targetPoint" />
          </mxGeometry>
        </mxCell>
        <mxCell id="MIzPGE-qYp7c597YkJrl-12" value="Lembrete" style="swimlane;whiteSpace=wrap;html=1;" parent="1" vertex="1">
          <mxGeometry x="800" y="240" width="120" height="240" as="geometry">
            <mxRectangle x="1310" y="20" width="80" height="30" as="alternateBounds" />
          </mxGeometry>
        </mxCell>
        <mxCell id="MIzPGE-qYp7c597YkJrl-13" value="Nome" style="text;html=1;align=center;verticalAlign=middle;resizable=0;points=[];autosize=1;strokeColor=none;fillColor=none;" parent="MIzPGE-qYp7c597YkJrl-12" vertex="1">
          <mxGeometry x="-5" y="40" width="60" height="30" as="geometry" />
        </mxCell>
        <mxCell id="MIzPGE-qYp7c597YkJrl-14" value="Data" style="text;html=1;align=center;verticalAlign=middle;resizable=0;points=[];autosize=1;strokeColor=none;fillColor=none;" parent="MIzPGE-qYp7c597YkJrl-12" vertex="1">
          <mxGeometry y="80" width="50" height="30" as="geometry" />
        </mxCell>
        <mxCell id="MIzPGE-qYp7c597YkJrl-16" value="ID" style="text;html=1;align=center;verticalAlign=middle;resizable=0;points=[];autosize=1;strokeColor=none;fillColor=none;" parent="MIzPGE-qYp7c597YkJrl-12" vertex="1">
          <mxGeometry x="5" y="125" width="40" height="30" as="geometry" />
        </mxCell>
        <mxCell id="MIzPGE-qYp7c597YkJrl-17" value="ID_UC" style="text;html=1;align=center;verticalAlign=middle;resizable=0;points=[];autosize=1;strokeColor=none;fillColor=none;" parent="MIzPGE-qYp7c597YkJrl-12" vertex="1">
          <mxGeometry y="160" width="60" height="30" as="geometry" />
        </mxCell>
        <mxCell id="MIzPGE-qYp7c597YkJrl-18" value="ID_Curso" style="text;html=1;align=center;verticalAlign=middle;resizable=0;points=[];autosize=1;strokeColor=none;fillColor=none;" parent="MIzPGE-qYp7c597YkJrl-12" vertex="1">
          <mxGeometry x="5" y="200" width="70" height="30" as="geometry" />
        </mxCell>
        <mxCell id="Pgj-9I-fhwqGwPlFETf9-1" value="" style="endArrow=none;html=1;rounded=0;entryX=1;entryY=0.75;entryDx=0;entryDy=0;" edge="1" parent="1" target="81bF-uPPxsggyHCmnINe-75">
          <mxGeometry width="50" height="50" relative="1" as="geometry">
            <mxPoint x="220" y="270" as="sourcePoint" />
            <mxPoint x="390" y="140" as="targetPoint" />
          </mxGeometry>
        </mxCell>
        <mxCell id="Pgj-9I-fhwqGwPlFETf9-5" value="" style="endArrow=none;html=1;rounded=0;" edge="1" parent="1">
          <mxGeometry width="50" height="50" relative="1" as="geometry">
            <mxPoint x="470" y="165" as="sourcePoint" />
            <mxPoint x="520" y="115" as="targetPoint" />
          </mxGeometry>
        </mxCell>
        <mxCell id="Pgj-9I-fhwqGwPlFETf9-6" value="" style="endArrow=none;html=1;rounded=0;" edge="1" parent="1">
          <mxGeometry width="50" height="50" relative="1" as="geometry">
            <mxPoint x="500" y="180" as="sourcePoint" />
            <mxPoint x="550" y="130" as="targetPoint" />
          </mxGeometry>
        </mxCell>
        <mxCell id="Pgj-9I-fhwqGwPlFETf9-7" value="" style="endArrow=none;html=1;rounded=0;" edge="1" parent="1">
          <mxGeometry width="50" height="50" relative="1" as="geometry">
            <mxPoint x="450" y="140" as="sourcePoint" />
            <mxPoint x="500" y="90" as="targetPoint" />
          </mxGeometry>
        </mxCell>
      </root>
    </mxGraphModel>
  </diagram>
</mxfile>
